<?xml version="1.0" encoding="UTF-8"?>
<svg id="_레이어_2" data-name="레이어_2" xmlns="http://www.w3.org/2000/svg" xmlns:xlink="http://www.w3.org/1999/xlink" viewBox="0 0 1133.86 426.67">
  <defs>
    <style>
      .cls-1 {
        fill: url(#_무제_그라디언트_92);
      }

      .cls-2 {
        fill: #1d295d;
      }

      .cls-3 {
        fill: #e67b13;
      }
    </style>
    <linearGradient id="_무제_그라디언트_92" data-name="무제 그라디언트 92" x1="132.62" y1="0" x2="132.62" y2="430.23" gradientUnits="userSpaceOnUse">
      <stop offset=".04" stop-color="#243a94"/>
      <stop offset=".18" stop-color="#8395c9"/>
      <stop offset=".35" stop-color="#5f6eb3"/>
      <stop offset=".54" stop-color="#243a94"/>
    </linearGradient>
  </defs>
  <g id="_레이어_1-2" data-name="레이어_1">
    <g>
      <g>
        <path class="cls-1" d="M233.38,362.93c-21.29,8.95-66.8,27.83-74.03,30.84-12.34,5.14-22.62,7.2-33.93,7.2s-21.59-3.08-28.79-9.25c-6.17-5.14-18.51-17-18.51-40.1V75.05c0-23.09,12.34-34.96,18.51-40.1,7.2-6.17,17.48-9.25,28.79-9.25s21.59,2.06,33.93,7.2c7.23,3.01,52.74,21.89,74.03,30.84,29.63,12.46,31.71,30.81,31.86,33.55-.17-28.54-18.6-44.17-44.19-55.14-21.59-9.25-54.49-23.65-76.08-31.87C131.54,5.17,116.18,0,92.53,0,34.96,0,0,38.04,0,97.67v231.33c0,59.63,34.96,97.67,92.53,97.67,23.65,0,39.01-5.17,52.43-10.28,21.59-8.22,54.49-22.62,76.08-31.87,25.59-10.97,44.03-26.6,44.19-55.14-.15,2.73-2.23,21.09-31.86,33.55Z"/>
        <g>
          <polygon class="cls-3" points="265.25 191.23 265.25 143.94 220.02 143.94 220.02 191.23 174.78 191.23 174.78 236.47 220.02 236.47 220.02 283.76 265.25 283.76 265.25 236.47 310.49 236.47 310.49 191.23 265.25 191.23"/>
          <rect class="cls-3" x="265.26" y="97.67" width="45.24" height="45.24" transform="translate(408.16 -167.58) rotate(90)"/>
          <rect class="cls-3" x="310.49" y="52.43" width="45.24" height="45.24" transform="translate(408.16 -258.06) rotate(90)"/>
          <rect class="cls-3" x="355.73" y="142.91" width="45.24" height="45.24" transform="translate(543.88 -212.82) rotate(90)"/>
          <path class="cls-3" d="M96.64,34.96c7.2-6.17,17.48-9.25,28.79-9.25s21.59,2.06,33.93,7.2c7.23,3.01,52.74,21.89,74.02,30.84,32.07,13.48,31.87,33.93,31.87,33.93h-45.24s.27-14.22-24.67-30.84c-12.34-8.22-37.91-23.87-48.32-29.82-7.2-4.11-16.45-8.22-26.73-8.22s-17.48,2.06-23.65,6.17"/>
          <path class="cls-3" d="M96.64,391.71c7.2,6.17,17.48,9.25,28.79,9.25s21.59-2.06,33.93-7.2c7.23-3.01,52.74-21.89,74.02-30.84,32.07-13.48,31.87-33.93,31.87-33.93h-45.24s.27,14.22-24.67,30.84c-12.34,8.22-37.91,23.87-48.32,29.82-7.2,4.11-16.45,8.22-26.73,8.22s-17.48-2.06-23.65-6.17"/>
        </g>
      </g>
      <g>
        <path class="cls-2" d="M574.27,48.46h-26.82c-2.69,0-4.88,2.18-4.88,4.88v47.55h-50.08v-47.55c0-2.69-2.18-4.88-4.88-4.88h-26.82c-2.69,0-4.88,2.18-4.88,4.88v136.55c0,2.69,2.18,4.88,4.88,4.88h26.82c2.69,0,4.88-2.18,4.88-4.88v-54.86h50.08v54.86c0,2.69,2.18,4.88,4.88,4.88h26.82c2.69,0,4.88-2.18,4.88-4.88V53.33c0-2.69-2.18-4.88-4.88-4.88Z"/>
        <rect class="cls-2" x="622.52" y="48.46" width="36.58" height="146.31" rx="4.88" ry="4.88"/>
        <path class="cls-2" d="M765.84,48.46h-58.43c-2.69,0-4.88,2.18-4.88,4.88v136.55c0,2.69,2.18,4.88,4.88,4.88h26.82c2.69,0,4.88-2.18,4.88-4.88v-47.55h26.73c25.92,0,46.94-21.02,46.94-46.94h0c0-25.92-21.02-46.94-46.94-46.94ZM760.67,111.86h-21.57v-31.7h22.46c9.04,0,15.83,7.72,15.83,16.7s-8.14,15-16.72,15Z"/>
        <path class="cls-2" d="M911.22,48.46h-58.43c-2.69,0-4.88,2.18-4.88,4.88v136.55c0,2.69,2.18,4.88,4.88,4.88h26.82c2.69,0,4.88-2.18,4.88-4.88v-47.55h26.73c25.92,0,46.94-21.02,46.94-46.94h0c0-25.92-21.02-46.94-46.94-46.94ZM906.05,111.86h-21.57v-31.7h22.46c9.04,0,15.83,7.72,15.83,16.7s-8.14,15-16.72,15Z"/>
        <path class="cls-2" d="M1061.9,48.46c-39.74,0-71.95,32.75-71.95,73.15s32.21,73.15,71.95,73.15,71.95-32.75,71.95-73.15-32.21-73.15-71.95-73.15ZM1061.9,159.99c-19.87,0-35.98-17.18-35.98-38.38s16.11-38.38,35.98-38.38,35.98,17.18,35.98,38.38-16.11,38.38-35.98,38.38Z"/>
        <path class="cls-2" d="M807.95,315.65l-3.59,20.65c-.33,1.89.89,3.71,2.76,4.13l7.44,1.65c0,11.99-6.45,19.04-19.41,19.04-11.63,0-19.77-8.2-19.77-19.37,0-9.32,6.12-17.11,15.26-16.54,2.06.13,3.62-1.36,3.89-3.04.75-4.67,2.69-11.99,3.49-16.89.31-1.92-.93-3.68-2.8-4.22-6.46-1.85-12.28-6.51-11.83-15.5.32-6.35,5.27-11.9,11.6-12.39,6.29-.49,11.56,3.53,13.05,10.15.91,4.06,1.72,6,5.8,6h16.31c4.18,0,4.93-3.67,4.8-6-1.69-29.48-19.76-37.92-38.6-38.36-21.48-.5-39.96,15.06-41.61,36.48-.93,12.08,2.69,21.4,9.35,27.79-11.61,7.09-19.09,18.72-19.09,34.06,0,26.49,19.19,47.97,50.37,47.97s49.2-17.99,49.2-41.98c0-.4-.02-.8-.03-1.2l4.22.61c1.96.33,3.81-1,4.14-2.96l3.62-21.71c.32-1.95-.98-3.79-2.93-4.14l-41.49-7.16c-1.96-.34-3.82.97-4.16,2.93Z"/>
        <path class="cls-2" d="M573.61,244.95h-112.17c-2.69,0-4.88,2.18-4.88,4.88v24.38c0,2.69,2.18,4.88,4.88,4.88h37.8v107.29c0,2.69,2.18,4.88,4.88,4.88h26.82c2.69,0,4.88-2.18,4.88-4.88v-107.29h37.8c2.69,0,4.88-2.18,4.88-4.88v-24.38c0-2.69-2.18-4.88-4.88-4.88Z"/>
        <path class="cls-2" d="M1076.11,356.48c-19.87,0-35.98-17.18-35.98-38.38s16.11-38.38,35.98-38.38c7.55,0,14.53,2.5,20.31,6.74,2.21,1.63,5.3,1.18,6.85-1.09l14.41-21.11c1.5-2.2.91-5.19-1.28-6.71-11.5-7.94-25.35-12.62-40.29-12.62-39.74,0-71.95,32.75-71.95,73.15s32.21,73.15,71.95,73.15c15.46,0,29.76-4.97,41.48-13.41,2.14-1.54,2.7-4.48,1.22-6.66l-14.44-21.15c-1.6-2.34-4.8-2.72-7.02-.97-5.95,4.66-13.29,7.41-21.24,7.41Z"/>
      </g>
    </g>
  </g>
</svg>